<?xml version="1.0" encoding="UTF-8" standalone="no"?>
<!-- Created with Inkscape (http://www.inkscape.org/) -->

<svg
   xmlns:dc="http://purl.org/dc/elements/1.1/"
   xmlns:cc="http://creativecommons.org/ns#"
   xmlns:rdf="http://www.w3.org/1999/02/22-rdf-syntax-ns#"
   xmlns:svg="http://www.w3.org/2000/svg"
   xmlns="http://www.w3.org/2000/svg"
   xmlns:sodipodi="http://sodipodi.sourceforge.net/DTD/sodipodi-0.dtd"
   xmlns:inkscape="http://www.inkscape.org/namespaces/inkscape"
   id="svg3390"
   version="1.1"
   inkscape:version="0.91 r13725"
   width="780.26184"
   height="929.21252"
   viewBox="0 0 780.26184 929.21252"
   sodipodi:docname="hair-2.svg">
  <metadata
     id="metadata3396">
    <rdf:RDF>
      <cc:Work
         rdf:about="">
        <dc:format>image/svg+xml</dc:format>
        <dc:type
           rdf:resource="http://purl.org/dc/dcmitype/StillImage" />
        <dc:title />
      </cc:Work>
    </rdf:RDF>
  </metadata>
  <defs
     id="defs3394" />
  <sodipodi:namedview
     pagecolor="#ffffff"
     bordercolor="#666666"
     borderopacity="1"
     objecttolerance="10"
     gridtolerance="10"
     guidetolerance="10"
     inkscape:pageopacity="0"
     inkscape:pageshadow="2"
     inkscape:window-width="1680"
     inkscape:window-height="1006"
     id="namedview3392"
     showgrid="false"
     inkscape:zoom="1.2777876"
     inkscape:cx="275.87094"
     inkscape:cy="345.91036"
     inkscape:window-x="1"
     inkscape:window-y="0"
     inkscape:window-maximized="0"
     inkscape:current-layer="layer3"
     fit-margin-top="300"
     fit-margin-left="150"
     fit-margin-right="150"
     fit-margin-bottom="0" />
  <g
     inkscape:groupmode="layer"
     id="layer3"
     inkscape:label="Hair-2"
     style="display:inline">
    <path
       style="fill:#ff7f2a;fill-rule:evenodd;stroke:#000000;stroke-width:4.09319258;stroke-linecap:butt;stroke-linejoin:miter;stroke-miterlimit:4;stroke-dasharray:none;stroke-opacity:1"
       d="m 162.78681,468.22115 62.9409,-15.24128 40.96154,-50.80424 -6.99344,40.64339 94.91089,-4.06434 28.97279,-59.94901 21.97937,53.85249 91.9137,9.14479 -10.98969,-36.57906 51.95123,41.65947 79.92494,25.40213 c 0,0 -43.95873,-144.28406 -235.77861,-148.34839 -178.83209,6.0965 -219.79362,144.28405 -219.79362,144.28405 z"
       id="path4176"
       inkscape:connector-curvature="0"
       sodipodi:nodetypes="ccccccccccccc" />
    <path
       transform="translate(-676.68183,-109.77075)"
       style="display:inline;fill:#ff7f2a;fill-opacity:1;fill-rule:evenodd;stroke:#000000;stroke-width:4;stroke-linecap:butt;stroke-linejoin:miter;stroke-miterlimit:4;stroke-dasharray:none;stroke-opacity:1"
       d="m 950.8199,813.78515 c 7.09226,23.98853 -7.33692,80.22868 -17.97531,87.32094 -5.2149,2.50315 -23.79761,-7.84333 -23.79761,-7.84333 10.83058,63.99887 89.66335,81.72164 89.66335,81.72164 0,0 10.24087,-106.37135 17.12447,-138.49512 -20.99052,-4.40802 -46.63751,-13.72534 -65.0149,-22.70413 z"
       id="path4178"
       inkscape:connector-curvature="0"
       sodipodi:nodetypes="cccccc" />
    <path
       sodipodi:nodetypes="ccccscc"
       inkscape:connector-curvature="0"
       id="path4180"
       d="m 501.2565,705.44684 c -7.0922,23.98853 6.9171,81.48811 17.5555,88.58037 5.2149,2.50315 24.00751,-7.63342 24.00751,-7.63342 -10.8305,63.99887 -100.78833,82.14145 -124.92746,84.0306 21.83017,-2.72877 29.30637,-13.57243 30.52932,-41.93195 1.44935,-33.60962 -11.39371,-73.79314 -11.13027,-100.34147 0,0 48.9465,-15.19468 63.9654,-22.70413 z"
       style="display:inline;fill:#ff7f2a;fill-opacity:1;fill-rule:evenodd;stroke:#000000;stroke-width:4;stroke-linecap:butt;stroke-linejoin:miter;stroke-miterlimit:4;stroke-dasharray:none;stroke-opacity:1" />
    <path
       style="fill:#ff7f2a;fill-opacity:1;fill-rule:evenodd;stroke:#000000;stroke-width:4;stroke-linecap:butt;stroke-linejoin:miter;stroke-miterlimit:4;stroke-dasharray:none;stroke-opacity:1"
       d="m 418.34178,870.43897 c -20.15093,1.25943 -28.12735,-0.2099 -28.12735,-0.2099 l -0.41981,-17.42217 c 7.13679,15.1132 16.16273,14.69339 28.54716,17.63207 z"
       id="path4184"
       inkscape:connector-curvature="0"
       sodipodi:nodetypes="cccc" />
  </g>
</svg>
