<?xml version="1.0" encoding="UTF-8" standalone="no"?>
<!-- Created with Inkscape (http://www.inkscape.org/) -->

<svg
   xmlns:dc="http://purl.org/dc/elements/1.1/"
   xmlns:cc="http://creativecommons.org/ns#"
   xmlns:rdf="http://www.w3.org/1999/02/22-rdf-syntax-ns#"
   xmlns:svg="http://www.w3.org/2000/svg"
   xmlns="http://www.w3.org/2000/svg"
   xmlns:sodipodi="http://sodipodi.sourceforge.net/DTD/sodipodi-0.dtd"
   xmlns:inkscape="http://www.inkscape.org/namespaces/inkscape"
   id="svg3390"
   version="1.1"
   inkscape:version="0.91 r13725"
   width="780.26184"
   height="929.21252"
   viewBox="0 0 780.26184 929.21252"
   sodipodi:docname="eye.svg">
  <metadata
     id="metadata3396">
    <rdf:RDF>
      <cc:Work
         rdf:about="">
        <dc:format>image/svg+xml</dc:format>
        <dc:type
           rdf:resource="http://purl.org/dc/dcmitype/StillImage" />
        <dc:title />
      </cc:Work>
    </rdf:RDF>
  </metadata>
  <defs
     id="defs3394" />
  <sodipodi:namedview
     pagecolor="#ffffff"
     bordercolor="#666666"
     borderopacity="1"
     objecttolerance="10"
     gridtolerance="10"
     guidetolerance="10"
     inkscape:pageopacity="0"
     inkscape:pageshadow="2"
     inkscape:window-width="1680"
     inkscape:window-height="1006"
     id="namedview3392"
     showgrid="false"
     inkscape:zoom="0.64207239"
     inkscape:cx="296.92859"
     inkscape:cy="387.3611"
     inkscape:window-x="1"
     inkscape:window-y="0"
     inkscape:window-maximized="0"
     inkscape:current-layer="layer5"
     fit-margin-top="300"
     fit-margin-left="150"
     fit-margin-right="150"
     fit-margin-bottom="0" />
  <g
     inkscape:groupmode="layer"
     id="layer5"
     inkscape:label="Eye"
     style="display:inline"
     transform="translate(-676.68183,-109.77075)">
    <path
       style="display:inline;fill:#ffffff;fill-opacity:1;fill-rule:evenodd;stroke:#000000;stroke-width:4;stroke-linecap:butt;stroke-linejoin:miter;stroke-miterlimit:4;stroke-dasharray:none;stroke-opacity:1"
       d="m 1007.5094,550.18773 c 0,0 20.0895,27.492 19.8936,73.79388 0.4533,44.18059 -18.6255,82.81455 -49.57675,108.6726 -42.84857,35.79767 -102.60723,19.9115 -102.60723,19.9115 -43.80476,-36.796 -48.18523,-106.88361 -45.55694,-120.90113 3.50438,-91.11389 62.20275,-126.1577 62.20275,-126.1577 77.97247,-22.77847 115.64457,44.68085 115.64457,44.68085 z"
       id="path4217"
       inkscape:connector-curvature="0"
       sodipodi:nodetypes="ccscccc" />
    <path
       style="display:inline;fill:#ff00ff;fill-opacity:1;fill-rule:evenodd;stroke:none;stroke-width:1px;stroke-linecap:butt;stroke-linejoin:miter;stroke-opacity:1"
       d="m 851.66108,625.01451 c -1.23899,101.59682 93.54341,115.22566 115.22566,113.36718 39.02796,-26.0187 60.09076,-71.86117 58.85176,-115.84516 -2.9479,-96.10229 -74.95858,-115.84516 -74.95858,-115.84516 -34.6916,9.29239 -100.97732,37.16958 -99.11884,118.32314 z"
       id="path4232"
       inkscape:connector-curvature="0"
       sodipodi:nodetypes="ccccc" />
    <path
       sodipodi:nodetypes="ccccc"
       inkscape:connector-curvature="0"
       id="path4255"
       d="m 876.43556,620.38396 c -1.06482,86.52941 78.70893,99.07674 93.87754,97.79313 43.1249,-4.74855 59.3682,-47.00001 57.3256,-99.90361 -7.054,-80.61076 -53.27018,-99.19225 -53.27018,-99.19225 -29.81471,7.91427 -99.53018,32.18472 -97.93296,101.30273 z"
       style="display:inline;fill:#000000;fill-opacity:1;fill-rule:evenodd;stroke:none;stroke-width:1px;stroke-linecap:butt;stroke-linejoin:miter;stroke-opacity:1" />
    <path
       style="display:inline;opacity:1;fill:#ffffff;fill-opacity:1;stroke:none;stroke-width:0.40000001;stroke-miterlimit:4;stroke-dasharray:none;stroke-opacity:1"
       d="m 1015.2071,623.15601 a 32.523373,32.833118 0 0 1 -32.52332,32.83311 32.523373,32.833118 0 0 1 -32.52338,-32.83311 32.523373,32.833118 0 0 1 32.52338,-32.83312 32.523373,32.833118 0 0 1 32.52332,32.83312 z"
       id="path4266"
       inkscape:connector-curvature="0" />
    <path
       sodipodi:nodetypes="ccscccc"
       inkscape:connector-curvature="0"
       id="path4338"
       d="m 1126.4835,552.6657 c 0,0 -20.0895,27.492 -19.8936,73.79388 -0.4533,44.18059 18.6255,82.81455 49.5768,108.6726 42.8485,35.79767 102.6072,19.9115 102.6072,19.9115 43.8048,-36.796 48.1852,-106.88361 45.5569,-120.90113 -3.5043,-91.11389 -62.2027,-126.1577 -62.2027,-126.1577 -77.9725,-22.77847 -115.6446,44.68085 -115.6446,44.68085 z"
       style="display:inline;fill:#ffffff;fill-opacity:1;fill-rule:evenodd;stroke:#000000;stroke-width:4;stroke-linecap:butt;stroke-linejoin:miter;stroke-miterlimit:4;stroke-dasharray:none;stroke-opacity:1" />
    <path
       sodipodi:nodetypes="ccccc"
       inkscape:connector-curvature="0"
       id="path4340"
       d="m 1282.3318,627.49248 c 1.239,101.59682 -93.5434,115.22566 -115.2256,113.36718 -39.028,-26.0187 -60.0908,-71.86117 -58.8518,-115.84516 2.9479,-96.10229 74.9586,-115.84516 74.9586,-115.84516 34.6916,9.29239 100.9773,37.16958 99.1188,118.32314 z"
       style="display:inline;fill:#ff00ff;fill-opacity:1;fill-rule:evenodd;stroke:none;stroke-width:1px;stroke-linecap:butt;stroke-linejoin:miter;stroke-opacity:1" />
    <path
       style="display:inline;fill:#000000;fill-opacity:1;fill-rule:evenodd;stroke:none;stroke-width:1px;stroke-linecap:butt;stroke-linejoin:miter;stroke-opacity:1"
       d="m 1257.5574,622.86193 c 1.0648,86.52941 -78.709,99.07674 -93.8776,97.79313 -43.1249,-4.74855 -59.3682,-47.00001 -57.3256,-99.90361 7.054,-80.61076 53.2702,-99.19225 53.2702,-99.19225 29.8147,7.91427 99.5302,32.18472 97.933,101.30273 z"
       id="path4342"
       inkscape:connector-curvature="0"
       sodipodi:nodetypes="ccccc" />
    <path
       inkscape:connector-curvature="0"
       id="path4344"
       d="m 1118.7858,625.63398 a 32.523373,32.833118 0 0 0 32.5233,32.83311 32.523373,32.833118 0 0 0 32.5234,-32.83311 32.523373,32.833118 0 0 0 -32.5234,-32.83312 32.523373,32.833118 0 0 0 -32.5233,32.83312 z"
       style="display:inline;opacity:1;fill:#ffffff;fill-opacity:1;stroke:none;stroke-width:0.40000001;stroke-miterlimit:4;stroke-dasharray:none;stroke-opacity:1" />
  </g>
</svg>
