<?xml version="1.0" encoding="UTF-8" standalone="no"?>
<!-- Created with Inkscape (http://www.inkscape.org/) -->

<svg
   xmlns:dc="http://purl.org/dc/elements/1.1/"
   xmlns:cc="http://creativecommons.org/ns#"
   xmlns:rdf="http://www.w3.org/1999/02/22-rdf-syntax-ns#"
   xmlns:svg="http://www.w3.org/2000/svg"
   xmlns="http://www.w3.org/2000/svg"
   xmlns:sodipodi="http://sodipodi.sourceforge.net/DTD/sodipodi-0.dtd"
   xmlns:inkscape="http://www.inkscape.org/namespaces/inkscape"
   id="svg3390"
   version="1.1"
   inkscape:version="0.91 r13725"
   width="780.26184"
   height="929.21252"
   viewBox="0 0 780.26184 929.21252"
   sodipodi:docname="body.svg">
  <metadata
     id="metadata3396">
    <rdf:RDF>
      <cc:Work
         rdf:about="">
        <dc:format>image/svg+xml</dc:format>
        <dc:type
           rdf:resource="http://purl.org/dc/dcmitype/StillImage" />
        <dc:title></dc:title>
      </cc:Work>
    </rdf:RDF>
  </metadata>
  <defs
     id="defs3394" />
  <sodipodi:namedview
     pagecolor="#ffffff"
     bordercolor="#666666"
     borderopacity="1"
     objecttolerance="10"
     gridtolerance="10"
     guidetolerance="10"
     inkscape:pageopacity="0"
     inkscape:pageshadow="2"
     inkscape:window-width="1687"
     inkscape:window-height="1010"
     id="namedview3392"
     showgrid="false"
     inkscape:zoom="0.64207239"
     inkscape:cx="524.31728"
     inkscape:cy="387.3611"
     inkscape:window-x="1"
     inkscape:window-y="0"
     inkscape:window-maximized="0"
     inkscape:current-layer="layer1"
     fit-margin-top="300"
     fit-margin-left="150"
     fit-margin-right="150"
     fit-margin-bottom="0" />
  <g
     inkscape:groupmode="layer"
     id="layer1"
     inkscape:label="Body"
     style="display:inline"
     transform="translate(-676.68183,-109.77075)">
    <path
       style="fill:#ffdcc8;fill-opacity:1;fill-rule:evenodd;stroke:#000000;stroke-width:4;stroke-linecap:butt;stroke-linejoin:miter;stroke-miterlimit:4;stroke-dasharray:none;stroke-opacity:1"
       d="m 1016.2703,835.79474 c 0,0 -19.09261,89.79441 -17.77847,143.23621 19.05527,28.07085 44.30937,48.92055 67.79107,7.13328 l -2.7034,-60.443 c 5.3489,62.01213 45.7797,46.0925 59.9813,-0.15786 l -9.1678,-88.01644 c 0,0 254.0675,-52.56571 169.9624,-285.60701 6.7419,-31.97751 35.8562,-111.49822 -3.0676,-138.8401 -21.7607,-15.28574 -26.4232,97.26625 -31.463,97.51332 -6.8144,-12.38985 -89.8748,-77.82215 -198.5106,-76.06996 -140.17524,8.76095 -226.0326,120.90113 -222.52822,201.50188 7.37758,106.27998 71.09363,172.04676 187.48432,199.74968 z"
       id="path3400"
       inkscape:connector-curvature="0"
       sodipodi:nodetypes="cccccccscccc" />
    <path
       style="display:inline;fill:#ffdcc8;fill-opacity:1;fill-rule:evenodd;stroke:#000000;stroke-width:4;stroke-linecap:butt;stroke-linejoin:miter;stroke-miterlimit:4;stroke-dasharray:none;stroke-opacity:1"
       d="m 900.74253,783.60466 c -10.53138,-4.33645 -73.71964,30.97465 -48.32044,62.56877 23.24344,21.34274 36.80489,-28.0436 79.91458,-40.88652 z"
       id="path4346"
       inkscape:connector-curvature="0"
       sodipodi:nodetypes="cccc" />
    <path
       style="display:inline;fill:#000000;fill-rule:evenodd;stroke:#000000;stroke-width:4;stroke-linecap:butt;stroke-linejoin:miter;stroke-miterlimit:4;stroke-dasharray:none;stroke-opacity:1"
       d="m 998.62242,977.50591 66.90518,0.61949 c 0,0 10.5313,59.4713 -28.4967,58.8518 -45.22166,0.7092 -38.40848,-59.47129 -38.40848,-59.47129 z"
       id="path4385"
       inkscape:connector-curvature="0"
       sodipodi:nodetypes="cccc" />
    <path
       style="display:inline;fill:#ffffff;fill-opacity:1;fill-rule:evenodd;stroke:none;stroke-width:1;stroke-linecap:butt;stroke-linejoin:miter;stroke-miterlimit:4;stroke-dasharray:none;stroke-opacity:1"
       d="m 1016.5877,992.37374 35.3111,0.61949 c 0,0 1.239,19.20427 -16.1068,19.20417 -17.3458,0 -19.2043,-19.82366 -19.2043,-19.82366 z"
       id="path4387"
       inkscape:connector-curvature="0"
       sodipodi:nodetypes="cccc" />
    <path
       style="display:inline;fill:#000000;fill-rule:evenodd;stroke:#000000;stroke-width:4;stroke-linecap:butt;stroke-linejoin:miter;stroke-miterlimit:4;stroke-dasharray:none;stroke-opacity:1"
       d="m 1063.6691,926.08801 60.7103,0.61949 c 0,0 2.478,51.4179 -26.6382,53.27638 -41.506,0 -34.0721,-53.89587 -34.0721,-53.89587 z"
       id="path4390"
       inkscape:connector-curvature="0"
       sodipodi:nodetypes="cccc" />
    <path
       style="display:inline;fill:#ffffff;fill-rule:evenodd;stroke:none;stroke-width:1px;stroke-linecap:butt;stroke-linejoin:miter;stroke-opacity:1"
       d="m 1079.776,939.09736 29.1161,0 c 0,0 0.6195,17.9653 -13.0093,17.3458 -14.2483,0 -16.1068,-17.3458 -16.1068,-17.3458 z"
       id="path4392"
       inkscape:connector-curvature="0"
       sodipodi:nodetypes="cccc" />
    <path
       style="display:inline;fill:none;fill-rule:evenodd;stroke:#000000;stroke-width:4;stroke-linecap:butt;stroke-linejoin:miter;stroke-miterlimit:4;stroke-dasharray:none;stroke-opacity:1"
       d="m 1045.0535,734.18722 c 12.4596,25.69804 32.7066,11.68093 31.9279,-7.00855"
       id="path4447"
       inkscape:connector-curvature="0"
       sodipodi:nodetypes="cc" />
  </g>
</svg>
